<?xml version="1.0" standalone="no"?>
<!DOCTYPE svg PUBLIC "-//W3C//DTD SVG 20010904//EN"
 "http://www.w3.org/TR/2001/REC-SVG-20010904/DTD/svg10.dtd">
<svg version="1.0" xmlns="http://www.w3.org/2000/svg"
 width="500.000000pt" height="500.000000pt" viewBox="0 0 500.000000 500.000000"
 preserveAspectRatio="xMidYMid meet">

<g transform="translate(0.000000,500.000000) scale(0.100000,-0.100000)"
fill="#000000" stroke="none">
<path d="M2655 3873 c-129 -31 -245 -91 -328 -172 -50 -47 -120 -142 -136
-183 -5 -13 -17 -40 -26 -61 l-16 -38 -31 26 c-68 57 -106 70 -208 70 -88 0
-101 -3 -162 -33 -116 -57 -179 -148 -186 -267 l-4 -70 -96 0 c-77 0 -110 -5
-157 -23 -115 -43 -214 -141 -255 -249 -90 -239 -4 -466 218 -576 l85 -42 234
-3 233 -4 0 -289 0 -289 -149 0 c-121 0 -155 3 -178 17 -25 14 -32 14 -58 2
-58 -28 -39 -119 25 -119 15 0 33 7 40 15 10 12 49 15 199 17 l186 3 3 323 2
322 180 0 180 0 0 -674 c0 -624 -1 -677 -17 -705 -16 -28 -17 -33 -3 -58 13
-23 23 -28 55 -28 32 0 42 5 55 28 14 25 13 30 -2 58 -17 28 -18 81 -18 705
l0 674 180 0 180 0 -3 -552 c-2 -304 -7 -569 -11 -589 -6 -27 -4 -40 9 -52 22
-22 68 -22 88 1 19 20 23 67 7 77 -6 4 -10 202 -10 561 l0 554 175 0 175 0 0
-409 c0 -242 4 -420 10 -435 l10 -26 177 0 c141 -1 182 -4 197 -15 30 -22 62
-18 85 11 26 33 26 45 0 78 -23 29 -55 33 -85 11 -15 -11 -53 -14 -166 -15
l-148 0 0 400 0 400 203 0 c229 0 307 10 384 47 64 31 146 115 172 175 44 104
51 197 21 311 -49 195 -193 322 -380 334 l-80 6 0 96 c0 187 -55 319 -188 451
-72 72 -103 95 -182 134 -52 25 -126 53 -165 61 -66 14 -274 19 -320 8z"/>
</g>
</svg>
